:SAMPLES-PER-SECOND 30
:FULLY-SPECIFIED
:DEGREES
196
root  45.5025 37.4542 27.3488 115.329 86.4312 69.682
RightUpLeg  -73.9958 -13.6225 17.6486
RightLeg  31.3029 -3.11169 -2.28703
RightFoot  -3.3022 0.747546 -10.9106
RightToes  0.00048216 0.542163 -0.142577
Spine  71.5387 -6.24779 6.49747
Spine1  4.81337 0.219948 -8.14025
HEad  -31.8079 -2.19334 -5.61572
LeftShoulder1  4.6591 -26.1402 -8.09623
LeftArm  -94.739 -59.364 31.9598
LeftForeArm  11.1725 -19.5909 -1.99767
LeftHand  -0.25398 0.0180481 5.50724
RightShoulder  2.71 13.0483 8.99058
RightArm  -83.4628 50.1902 -29.8965
RightForeArm  -8.78207 18.3604 3.51308
RightHand  -0.351314 5.69455 -4.04056
LeftUpLeg  -69.9576 9.70715 -20.0781
LeftLeg  27.1401 1.64291 1.25681
LeftFoot  -2.54109 -0.519528 6.94303
LeftToes  1.06248e-005 4.65855e-005 -8.185e-006
197
root  45.6121 37.4554 27.4126 117.321 86.4702 72.1059
RightUpLeg  -73.4122 -13.4222 17.0014
RightLeg  31.8081 -3.60461 -2.65632
RightFoot  -3.71928 0.688311 -10.666
RightToes  0.00048216 0.542163 -0.142577
Spine  71.419 -6.12947 6.53777
Spine1  5.54463 0.421024 -8.18324
HEad  -31.2663 -2.56582 -5.29234
LeftShoulder1  4.356 -25.9601 -7.06185
LeftArm  -93.93 -59.7179 31.3758
LeftForeArm  12.1387 -19.7229 -2.11293
LeftHand  -0.25398 0.0180481 5.50724
RightShoulder  2.71364 13.3632 8.67149
RightArm  -82.5961 49.8663 -28.545
RightForeArm  -11.6053 19.1368 3.99259
RightHand  -0.9383 6.21256 -9.74407
LeftUpLeg  -69.5111 9.77046 -19.6503
LeftLeg  27.5579 1.83304 1.38111
LeftFoot  -2.84684 -0.484815 6.75128
LeftToes  1.06248e-005 4.65855e-005 -8.185e-006
198
root  45.6959 37.434 27.4842 119.715 86.4012 74.6008
RightUpLeg  -73.2255 -13.3081 16.5558
RightLeg  32.2283 -3.78374 -2.81784
RightFoot  -4.21326 0.614789 -10.288
RightToes  0.00048216 0.542163 -0.142577
Spine  70.8806 -5.86508 6.51827
Spine1  6.1998 0.604332 -7.95027
HEad  -30.7315 -2.89592 -5.00037
LeftShoulder1  4.04225 -25.5909 -6.0743
LeftArm  -94.5107 -60.5299 30.0733
LeftForeArm  13.9003 -20.1702 -2.34514
LeftHand  -0.25398 0.0180481 5.50724
RightShoulder  2.66367 13.49 8.20754
RightArm  -81.8344 49.7983 -26.7461
RightForeArm  -14.3099 20.1919 4.5619
RightHand  -1.52028 7.17822 -14.4212
LeftUpLeg  -69.3824 9.5949 -19.2781
LeftLeg  27.922 2.12061 1.56218
LeftFoot  -3.13997 -0.442089 6.42367
LeftToes  1.06248e-005 4.65855e-005 -8.185e-006
199
root  45.7654 37.4166 27.5405 123.469 86.2638 78.6313
RightUpLeg  -72.942 -13.4762 16.3548
RightLeg  32.4791 -4.10987 -3.06545
RightFoot  -4.76973 0.550605 -10.1167
RightToes  0.00048216 0.542163 -0.142577
Spine  70.3931 -5.73083 6.57965
Spine1  6.8109 0.708844 -7.71387
HEad  -30.3196 -2.92407 -4.91225
LeftShoulder1  3.80871 -25.3948 -5.28185
LeftArm  -95.9867 -61.4934 29.0751
LeftForeArm  15.712 -20.2408 -2.21904
LeftHand  -0.25398 0.0180481 5.50724
RightShoulder  2.59882 13.3936 7.87816
RightArm  -81.6591 50.0161 -24.8717
RightForeArm  -15.3139 21.1396 4.97504
RightHand  -1.88623 7.91509 -16.7996
LeftUpLeg  -69.0416 9.41601 -18.9944
LeftLeg  28.1517 2.19322 1.61604
LeftFoot  -3.36451 -0.404161 6.0828
LeftToes  1.06248e-005 4.65855e-005 -8.185e-006
200
root  45.8234 37.4374 27.5691 126.158 86.1655 82.0795
RightUpLeg  -72.2704 -13.9412 16.3496
RightLeg  32.7091 -4.35228 -3.25695
RightFoot  -5.12547 0.522787 -10.2269
RightToes  0.00048216 0.542163 -0.142577
Spine  70.397 -5.68829 6.70804
Spine1  7.4576 0.848727 -7.48967
HEad  -29.9809 -3.24138 -4.97832
LeftShoulder1  3.80099 -25.5976 -5.1464
LeftArm  -97.2698 -62.3617 29.0542
LeftForeArm  16.4168 -19.9164 -1.85216
LeftHand  -0.25398 0.0180481 5.50724
RightShoulder  2.54569 13.1665 7.75803
RightArm  -81.9017 50.4005 -23.694
RightForeArm  -15.4581 21.3776 5.06094
RightHand  -2.0123 8.17364 -17.5355
LeftUpLeg  -68.1724 9.45594 -18.7002
LeftLeg  28.2434 2.17589 1.61082
LeftFoot  -3.49725 -0.385017 5.91872
LeftToes  1.06248e-005 4.65855e-005 -8.185e-006
201
root  45.8618 37.4775 27.5858 127.016 86.2142 83.8167
RightUpLeg  -71.5453 -14.4768 16.4861
RightLeg  33.0655 -4.05667 -3.09211
RightFoot  -5.16033 0.522034 -10.2754
RightToes  0.00048216 0.542163 -0.142577
Spine  70.9265 -5.89431 6.63896
Spine1  7.6631 0.705485 -7.66009
HEad  -29.6545 -3.08174 -5.13597
LeftShoulder1  3.89248 -25.1133 -5.75537
LeftArm  -97.1626 -63.2813 29.6517
LeftForeArm  15.5681 -19.5313 -1.63915
LeftHand  -0.25398 0.0180481 5.50724
RightShoulder  2.59029 13.5187 7.69507
RightArm  -82.319 51.046 -23.0216
RightForeArm  -15.5112 20.673 4.75076
RightHand  -2.09254 8.42906 -17.8827
LeftUpLeg  -67.2518 9.58132 -18.2316
LeftLeg  28.4186 2.33725 1.71485
LeftFoot  -3.60772 -0.370297 5.79566
LeftToes  1.06248e-005 4.65855e-005 -8.185e-006
202
root  45.8714 37.4863 27.6073 127.493 86.359 84.8099
RightUpLeg  -71.1969 -14.7697 16.6325
RightLeg  33.5019 -3.53664 -2.77261
RightFoot  -5.09901 0.517874 -10.0912
RightToes  0.00048216 0.542163 -0.142577
Spine  71.1633 -5.76623 6.69171
Spine1  7.7304 0.830109 -7.45159
HEad  -29.2706 -3.15787 -5.38536
LeftShoulder1  4.07261 -25.0729 -6.48167
LeftArm  -96.6773 -64.1463 29.755
LeftForeArm  15.0977 -19.285 -1.54023
LeftHand  -0.25398 0.0180481 5.50724
RightShoulder  2.54297 13.2848 7.61812
RightArm  -82.3079 51.8324 -22.821
RightForeArm  -15.7505 19.5047 4.21078
RightHand  -2.23117 9.09445 -18.1908
LeftUpLeg  -66.8861 9.5587 -17.6618
LeftLeg  28.8512 2.65113 1.92658
LeftFoot  -3.72163 -0.351882 5.6171
LeftToes  1.06248e-005 4.65855e-005 -8.185e-006
203
root  45.8504 37.4481 27.6299 127.754 86.4475 85.2372
RightUpLeg  -71.201 -14.7014 16.5949
RightLeg  33.9113 -3.46055 -2.75825
RightFoot  -5.19883 0.498945 -9.91803
RightToes  0.00048216 0.542163 -0.142577
Spine  71.0802 -5.7099 6.6816
Spine1  7.5581 0.833352 -7.53455
HEad  -28.9485 -2.7085 -5.28244
LeftShoulder1  4.20832 -25.0529 -7.0224
LeftArm  -96.0179 -64.6791 29.9651
LeftForeArm  14.621 -18.8565 -1.28983
LeftHand  -0.25398 0.0180481 5.50724
RightShoulder  2.50088 12.988 7.63948
RightArm  -81.9654 52.6376 -22.3982
RightForeArm  -15.6949 18.5593 3.73922
RightHand  -2.30251 9.64898 -18.0906
LeftUpLeg  -67.0223 9.37425 -17.206
LeftLeg  29.4423 2.9822 2.16673
LeftFoot  -3.81926 -0.338797 5.50051
LeftToes  1.06248e-005 4.65855e-005 -8.185e-006
204
root  45.8001 37.3917 27.6416 126.942 86.4224 84.6032
RightUpLeg  -71.2496 -14.4817 16.3238
RightLeg  34.3236 -3.80633 -3.05045
RightFoot  -5.40143 0.480846 -9.93548
RightToes  0.00048216 0.542163 -0.142577
Spine  70.9292 -5.73451 6.58502
Spine1  7.50846 0.753318 -7.80792
HEad  -28.9017 -2.05049 -5.12849
LeftShoulder1  4.35805 -25.1331 -7.55744
LeftArm  -95.7092 -64.8647 31.2257
LeftForeArm  13.4001 -18.2095 -0.926174
LeftHand  -0.25398 0.0180481 5.50724
RightShoulder  2.52251 12.8853 7.89354
RightArm  -81.512 53.0493 -22.225
RightForeArm  -16.0821 18.2094 3.61694
RightHand  -2.26916 9.81101 -17.6619
LeftUpLeg  -67.1717 9.08916 -16.8371
LeftLeg  30.0442 3.37463 2.4561
LeftFoot  -3.90902 -0.327088 5.39515
LeftToes  1.06248e-005 4.65855e-005 -8.185e-006
205
root  45.7138 37.3408 27.6381 125.759 86.345 83.8185
RightUpLeg  -71.2157 -14.3624 15.9396
RightLeg  34.8678 -4.08821 -3.31819
RightFoot  -5.47729 0.474482 -9.95006
RightToes  0.00048216 0.542163 -0.142577
Spine  70.9582 -5.74954 6.51614
Spine1  7.64705 0.734034 -7.93728
HEad  -29.1266 -1.78289 -5.23062
LeftShoulder1  4.4897 -25.0438 -8.12502
LeftArm  -95.8598 -65.2941 33.4532
LeftForeArm  11.3799 -17.3719 -0.550416
LeftHand  -0.25398 0.0180481 5.50724
RightShoulder  2.62953 13.0356 8.45916
RightArm  -80.8755 53.0231 -23.0344
RightForeArm  -17.5779 18.1112 3.73706
RightHand  -2.35534 10.3281 -17.7293
LeftUpLeg  -67.117 8.69265 -16.3841
LeftLeg  30.6663 3.90519 2.84753
LeftFoot  -3.96491 -0.310889 5.19116
LeftToes  1.06248e-005 4.65855e-005 -8.185e-006
206
root  45.5761 37.2834 27.6273 125.164 86.2594 83.7349
RightUpLeg  -71.2421 -14.2902 15.5034
RightLeg  35.5779 -4.24394 -3.52026
RightFoot  -5.37686 0.474329 -9.76801
RightToes  0.00048216 0.542163 -0.142577
Spine  71.0124 -5.65084 6.62949
Spine1  7.77622 0.911058 -7.77805
HEad  -29.6165 -2.2598 -5.31487
LeftShoulder1  4.52631 -24.8293 -8.40309
LeftArm  -96.2227 -66.3615 35.822
LeftForeArm  9.33836 -16.0384 0.0700522
LeftHand  -0.25398 0.0180481 5.50724
RightShoulder  2.74476 13.0241 9.2561
RightArm  -79.8592 53.0789 -24.8715
RightForeArm  -19.4658 17.366 3.67159
RightHand  -2.7862 11.9005 -19.0018
LeftUpLeg  -67.0768 8.28741 -15.9758
LeftLeg  31.3231 4.42966 3.25498
LeftFoot  -3.88033 -0.309844 5.10803
LeftToes  1.06248e-005 4.65855e-005 -8.185e-006
